<svg xmlns="http://www.w3.org/2000/svg" viewBox="0 0 512 512" width="100%px" height="100%px" transform="rotate(0) scale(1, 1)"><rect width="512" height="512" rx="64" ry="64" fill="none"/><path d="M65.89 0L30.41 0L33.79-27.03L33.79-236.54L82.79-236.54L148.68-56.43L153.75-35.48L156.46-35.48L161.53-56.43L227.42-236.54L276.42-236.54L276.42-27.03L279.80 0L244.32 0L247.70-27.03L247.70-208.50L243.64-208.50L233.50-170.31L170.31-3.38L139.90-3.38L76.71-170.31L66.57-208.50L62.52-208.50L62.52-27.03L65.89 0ZM515.33 0L476.47 0L458.90-27.03L398.41-107.80L358.53-107.80L358.53-133.14L394.69-133.14L459.23-214.24L473.43-236.54L510.94-236.54L422.74-125.37L515.33 0ZM376.10 0L340.62 0L344.00-27.03L344.00-209.51L340.62-236.54L376.10-236.54L372.73-209.51L372.73-27.03L376.10 0Z" fill="#ffb238" transform="translate(-1.6639999999999873, 374.272)"/></svg>